<?xml version="1.0" encoding="UTF-8"?>
<svg id="Layer_1" data-name="Layer 1" xmlns="http://www.w3.org/2000/svg" viewBox="0 0 1080 308">
  <defs>
    <style>
      .cls-1 {
        fill: #4e843d;
      }

      .cls-1, .cls-2 {
        stroke-width: 0px;
      }

      .cls-2 {
        fill: #6c755b;
      }
    </style>
  </defs>
  <path class="cls-1" d="m136.72,138.7c-3.58,7.21-7.18,14.49-10.81,21.86-3.63,7.38-7.45,14.46-11.35,21.06-2.64,4.47-5.41,8.65-8.27,12.53-1.38,1.88-2.78,3.72-4.21,5.45-2.12,2.57-4.35,4.91-6.67,6.99h68.37c27.28,0,52.03-11.07,69.9-28.95,17.88-17.87,28.96-42.62,28.95-69.9,0-27.28-11.07-52.03-28.95-69.9-13.61-13.61-31.12-23.08-49.99-26.94-6.74-1.38-13.06-2.01-19.91-2.01h-94.73c-17.03,0-32.49,6.92-43.65,18.08-3.64,3.63-6.81,7.73-9.45,12.18-3.81,6.42-6.49,13.58-7.76,21.22v2.97h102.07c17.03,0,32.49-6.92,43.65-18.08,3.64-3.63,6.81-7.73,9.45-12.18,2.16-3.64,3.95-7.54,5.33-11.61,21.92,1.23,41.62,10.6,56.2,25.16,15.65,15.66,25.31,37.22,25.31,61.11,0,23.88-9.66,45.45-25.31,61.11-15.66,15.65-37.22,25.31-61.11,25.31h-41.35c.82-1.32,1.63-2.67,2.43-4.05,3.7-6.44,7.33-13.25,10.76-20.23,3.5-7.11,6.97-14.29,10.31-21.35,3.41-7.21,7.01-14.18,10.69-20.73,2.76-4.92,5.67-9.59,8.67-13.93,1.01-1.46,2.02-2.88,3.05-4.26,2.21-2.98,4.58-5.72,7.06-8.17h-68.37c-27.28,0-52.03,11.07-69.9,28.95-17.88,17.87-28.96,42.62-28.95,69.9,0,27.28,11.07,52.03,28.95,69.9,13.72,13.71,31.39,23.22,50.41,27.03,3.81.76,7.66,1.26,11.53,1.61,2.27.21,4.96.31,7.46.31h94.67c17.03,0,32.49-6.92,43.65-18.08,3.64-3.63,6.81-7.73,9.45-12.18,3.81-6.42,6.49-13.58,7.76-21.22v-2.97h-102.07c-17.03,0-32.49,6.92-43.65,18.08-3.64,3.63-6.81,7.73-9.45,12.18-2.16,3.63-3.93,7.51-5.32,11.57-21.7-1.35-41.2-10.68-55.65-25.12-15.65-15.66-25.31-37.22-25.31-61.11,0-23.88,9.66-45.45,25.31-61.11,15.66-15.65,37.22-25.31,61.11-25.31h42.83c-.8,1.36-1.6,2.75-2.38,4.18-3.58,6.52-7.21,13.48-10.78,20.67Z"/>
  <g>
    <path class="cls-1" d="m358.67,133.99c1.46,2.56,2.2,5.83,2.2,9.71,0,4.33-.95,8.11-2.82,11.23-1.85,3.09-4.28,5.65-7.22,7.62-2.91,1.95-6.26,3.41-9.96,4.32-3.67.91-7.36,1.37-10.99,1.37-4.98,0-9.97-.75-14.83-2.22-4.91-1.48-9.36-3.93-13.24-7.28l-.85-.74,10-10.41.65,1.44c.98,2.18,2.32,4.2,3.98,6,1.67,1.81,3.56,3.38,5.62,4.65,2.06,1.28,4.31,2.29,6.7,3,2.37.71,4.76,1.07,7.09,1.07,4.72,0,8.43-1.37,11.02-4.07,2.61-2.71,3.93-6.48,3.93-11.22,0-2.88-.63-5.28-1.88-7.13-1.28-1.9-3-3.49-5.11-4.74-2.17-1.28-4.68-2.35-7.44-3.18-2.85-.85-5.78-1.7-8.77-2.55-3.02-.86-6.01-1.84-8.87-2.92-2.94-1.11-5.62-2.58-7.95-4.38-2.37-1.83-4.31-4.13-5.74-6.86-1.45-2.74-2.18-6.2-2.18-10.29s.9-7.65,2.66-10.52c1.75-2.83,4.07-5.18,6.9-6.96,2.8-1.76,5.98-3.06,9.45-3.86,3.44-.79,6.94-1.19,10.42-1.19,4.84,0,9.55.75,14.02,2.22,4.49,1.48,8.66,3.89,12.38,7.16l.8.7-9.8,11.31-.62-1.73c-.77-2.18-1.91-4.2-3.38-6.03-1.49-1.84-3.23-3.48-5.18-4.86-1.94-1.38-4.08-2.47-6.35-3.25-2.25-.77-4.57-1.17-6.88-1.17-4.35,0-7.68,1.18-9.91,3.51-2.24,2.34-3.37,5.74-3.37,10.11,0,3.19.64,5.8,1.89,7.77,1.28,2.01,2.99,3.72,5.08,5.07,2.14,1.39,4.62,2.55,7.37,3.44,2.83.92,5.77,1.81,8.75,2.66,3.01.85,5.99,1.8,8.85,2.8,2.94,1.03,5.59,2.39,7.89,4.03,2.34,1.68,4.26,3.81,5.7,6.35Zm77.9-35.65c1.88,2.94,2.84,6.64,2.84,10.98,0,4.68-.96,8.86-2.85,12.41-1.88,3.53-4.39,6.54-7.46,8.96-3.06,2.41-6.62,4.25-10.58,5.47-3.94,1.21-8.09,1.83-12.33,1.83-5.49,0-11.07-.75-16.62-2.22v30.92h-12.26v-80.34l31.32-.12c3.54,0,7.17.38,10.79,1.13,3.66.76,7,2.06,9.91,3.86,2.94,1.82,5.38,4.22,7.24,7.12Zm-10.32,14.76c0-8.1-1.87-13.94-5.55-17.35-3.71-3.43-9.68-5.17-17.74-5.17h-13.39v41.13c2.29.51,4.62.94,6.94,1.3,2.56.4,5.15.6,7.68.6,6.98,0,12.48-1.62,16.34-4.82,3.8-3.15,5.73-8.43,5.73-15.7Zm83.7,41.63c-2.17-2.17-3.87-4.15-5.04-5.91-1.24-1.84-2.57-3.55-3.93-5.07-1.39-1.54-3.11-2.99-5.11-4.3-1.19-.78-2.7-1.54-4.53-2.29,2.37-.44,4.67-1.09,6.89-1.94,3.59-1.38,6.79-3.3,9.51-5.7,2.73-2.42,4.93-5.36,6.54-8.74,1.62-3.39,2.44-7.25,2.44-11.47s-.95-8.05-2.84-11.03c-1.86-2.94-4.3-5.34-7.25-7.13-2.91-1.76-6.24-3.04-9.9-3.8-3.62-.75-7.25-1.13-10.79-1.13h-31.33v80.46h12.26v-76.09h13.39c8.06,0,14.03,1.74,17.74,5.17,3.68,3.41,5.55,9.24,5.55,17.35,0,7.27-1.93,12.55-5.73,15.7-3.86,3.2-9.36,4.82-16.34,4.82-.79,0-1.62-.04-2.47-.11-.89-.07-1.74-.15-2.55-.22l-1.17-.11v4.42l1.02.05c2.97.14,5.57.71,7.73,1.69,2.16.98,4.07,2.32,5.68,3.99,1.63,1.7,3.05,3.7,4.22,5.93,1.19,2.27,2.28,4.75,3.22,7.35.22.67.48,1.44.78,2.29.3.87.62,1.73.96,2.6.34.87.7,1.74,1.08,2.56.41.9.87,1.66,1.39,2.26l.32.38,23.41-.11.46-2.03c-3.06-1.49-5.89-2.94-8.41-4.32-2.49-1.35-4.92-3.2-7.21-5.49Zm81.7-7.43c-3.55,4.92-7.15,8.67-10.7,11.15-3.53,2.46-6.92,4.05-10.07,4.73-1.53.33-3.02.49-4.43.49s-2.91-.18-4.26-.53c-2.67-.7-4.97-1.78-6.86-3.21-1.87-1.42-3.31-3.03-4.27-4.78-.91-1.66-1.25-3.16-1-4.47.41-2.3,1.39-4.12,3-5.56,1.69-1.51,3.69-2.8,5.96-3.83,2.31-1.05,4.79-1.94,7.36-2.67,2.66-.75,5.15-1.61,7.41-2.55,2.32-.97,4.28-2.15,5.81-3.53,1.68-1.5,2.53-3.51,2.53-5.97,0-2.21-.86-3.95-2.56-5.16-1.5-1.06-3.36-1.94-5.54-2.6-2.09-.63-4.37-1.26-6.78-1.85-2.31-.57-4.43-1.38-6.31-2.4-1.8-.98-3.26-2.32-4.34-3.98-1.05-1.6-1.44-3.86-1.17-6.71.21-2.13.94-4.24,2.18-6.28,1.26-2.07,2.88-3.86,4.8-5.32,1.92-1.47,4.08-2.55,6.43-3.21,1.14-.32,2.31-.49,3.46-.49s2.35.17,3.53.49c2.36.65,4.69,2.15,6.91,4.44,2.26,2.33,4.23,5.79,5.88,10.3l.74,2.02,7.84-12.18-.55-.61c-2.18-2.41-5.08-4.35-8.63-5.78-3.48-1.4-7.28-2.36-11.28-2.85-1.93-.24-3.89-.36-5.83-.36-2.09,0-4.22.14-6.34.41-4.09.53-7.87,1.59-11.22,3.15-3.4,1.58-6.26,3.78-8.5,6.52-2.29,2.81-3.53,6.26-3.69,10.24-.16,3.08.59,5.65,2.25,7.64,1.57,1.89,3.56,3.44,5.91,4.61,2.28,1.14,4.81,2.07,7.5,2.75,2.66.67,5.16,1.26,7.44,1.73,2.25.47,4.15.95,5.62,1.42.96.31,1.53.69,1.53,1.04,0,.66-.6,1.29-1.79,1.87-1.54.75-3.51,1.52-5.87,2.28-2.37.76-4.92,1.62-7.81,2.62-2.84.98-5.56,2.27-8.11,3.82-2.58,1.58-4.83,3.57-6.68,5.92-1.9,2.42-3.03,5.44-3.34,8.96-.4,4.05.52,7.52,2.73,10.33,2.14,2.73,5.08,4.88,8.72,6.39,3.57,1.48,7.66,2.42,12.17,2.8,1.54.13,3.11.2,4.67.2,2.95,0,5.96-.24,8.94-.71,4.55-.72,8.96-1.96,13.1-3.68,4.19-1.75,7.71-4,10.46-6.67l.6-.59-6.6-11.14-.96,1.33Zm52.67-9.03c2.39-4.86,4.77-9.78,7.07-14.64,2.31-4.88,4.75-9.61,7.25-14.06,2.48-4.42,5.14-8.54,7.88-12.23,2.71-3.64,5.72-6.69,8.95-9.06l2.63-1.93-60.65-.12-2.55,12.75,2.1-1.31c1.13-.7,2.77-1.48,4.88-2.3,2.16-.84,4.46-1.64,6.82-2.37,2.37-.73,4.69-1.34,6.92-1.81,2.18-.47,3.92-.7,5.17-.7h14.56c-2.24,3.1-4.44,6.6-6.54,10.43-2.47,4.49-4.96,9.27-7.42,14.22-2.45,4.93-4.91,9.92-7.4,14.96-2.47,5.01-5.05,9.81-7.69,14.28-2.63,4.45-5.44,8.5-8.36,12.04-2.88,3.49-6.01,6.27-9.3,8.28l-3.26,1.98h69.2l2.35-10.95-2.07,1.16c-1.12.63-2.74,1.3-4.81,1.97-2.1.69-4.35,1.32-6.7,1.87-2.34.55-4.65.99-6.86,1.32-2.2.33-4,.49-5.35.49h-21.13c2.41-3.09,4.71-6.54,6.87-10.3,2.56-4.45,5.06-9.15,7.43-13.97Zm82.21,0c2.39-4.86,4.77-9.78,7.07-14.64,2.31-4.88,4.75-9.61,7.25-14.06,2.48-4.42,5.14-8.54,7.88-12.23,2.71-3.64,5.72-6.69,8.95-9.06l2.63-1.93-60.65-.12-2.55,12.75,2.1-1.31c1.13-.7,2.77-1.48,4.88-2.3,2.16-.84,4.46-1.64,6.82-2.37,2.37-.73,4.69-1.34,6.92-1.81,2.18-.47,3.92-.7,5.17-.7h14.56c-2.24,3.1-4.44,6.6-6.54,10.43-2.47,4.49-4.96,9.27-7.42,14.22-2.45,4.93-4.91,9.92-7.4,14.96-2.47,5.01-5.05,9.81-7.69,14.28-2.63,4.45-5.44,8.5-8.36,12.04-2.88,3.49-6.01,6.27-9.3,8.28l-3.26,1.98h69.2l2.35-10.95-2.07,1.16c-1.12.63-2.74,1.3-4.81,1.97-2.1.69-4.35,1.32-6.7,1.87-2.34.55-4.65.99-6.86,1.32-2.2.33-4,.49-5.35.49h-21.13c2.41-3.09,4.71-6.54,6.87-10.3,2.56-4.45,5.06-9.15,7.43-13.97Zm63.44-51.94l3.31,8.4-11.4,26.74c-1.1,2.56-2.23,5.07-3.38,7.47-1.15,2.41-2.19,4.88-3.1,7.32-.91,2.46-1.63,5.02-2.16,7.61-.54,2.63-.77,5.49-.69,8.55.23,4.63,1.23,9.2,2.97,13.58l.27.68h19.13l-1.18-1.68c-1.04-1.49-2.01-2.85-2.9-4.08-.87-1.2-1.7-2.43-2.46-3.66-.75-1.22-1.47-2.53-2.11-3.9-.65-1.36-1.27-2.9-1.83-4.52-2.51-8.32-2.11-16.65,1.19-24.76l7.45-18.12,2.43-5.73,26.45,66.33,14,.13-32.23-80.36h-13.75Zm115.79,9.5c-.88-2.94-2.33-5.97-4.3-9.01l-.32-.49h-24.09l3.26,1.98c3.35,2.04,6.48,4.22,9.29,6.48,2.77,2.23,5.18,4.71,7.15,7.37,1.96,2.64,3.5,5.64,4.57,8.93,1.07,3.29,1.62,7.07,1.62,11.24v14.24c0,3.6-.44,7.08-1.3,10.35-.85,3.23-2.2,6.12-4,8.6-1.78,2.45-4.09,4.44-6.87,5.92-2.76,1.47-6.17,2.21-10.12,2.21s-7.28-.73-10.08-2.16c-2.81-1.44-5.15-3.41-6.97-5.86-1.84-2.47-3.2-5.38-4.05-8.64-.86-3.31-1.3-6.81-1.3-10.41v-50.24h-12.26v48.46c0,4.98.59,9.55,1.77,13.59,1.19,4.09,3.03,7.67,5.49,10.62,2.48,2.98,5.71,5.29,9.6,6.87,3.86,1.57,8.47,2.36,13.7,2.36s10.04-.79,13.87-2.36c3.86-1.58,7.05-3.89,9.49-6.88,2.42-2.95,4.24-6.52,5.43-10.61,1.17-4.04,1.8-8.6,1.88-13.57l.22-11.57c.07-3.26.17-6.4.28-9.44.11-3.07.04-6.13-.23-9.09-.27-2.99-.84-5.98-1.71-8.89Zm74.88,58.9c-2.17-2.17-3.86-4.15-5.04-5.9-1.24-1.84-2.56-3.55-3.93-5.07-1.39-1.54-3.11-2.99-5.11-4.3-1.19-.78-2.7-1.54-4.53-2.29,2.37-.44,4.67-1.09,6.88-1.94,3.59-1.38,6.79-3.3,9.51-5.7,2.73-2.42,4.93-5.36,6.54-8.74,1.62-3.39,2.44-7.25,2.44-11.47s-.95-8.05-2.84-11.03c-1.86-2.94-4.3-5.34-7.25-7.13-2.91-1.76-6.24-3.04-9.9-3.8-3.62-.75-7.25-1.13-10.79-1.13h-31.33v80.46h12.26v-76.09h13.39c8.06,0,14.03,1.74,17.74,5.17,3.68,3.41,5.55,9.24,5.55,17.35,0,7.27-1.93,12.55-5.73,15.7-3.86,3.2-9.36,4.82-16.34,4.82-.79,0-1.62-.04-2.47-.11-.89-.07-1.74-.15-2.55-.22l-1.17-.11v4.42l1.02.05c2.96.14,5.57.71,7.73,1.69,2.16.98,4.07,2.32,5.68,3.99,1.63,1.7,3.05,3.7,4.22,5.93,1.19,2.28,2.28,4.76,3.21,7.35.22.67.48,1.44.78,2.29.3.87.62,1.73.96,2.6.34.88.71,1.74,1.08,2.56.41.9.87,1.66,1.38,2.26l.32.38,23.41-.11.46-2.03c-3.05-1.49-5.88-2.94-8.41-4.32-2.49-1.35-4.92-3.2-7.21-5.49Zm58.93-68.4h-13.75l3.31,8.4-11.4,26.74c-1.1,2.56-2.23,5.07-3.38,7.47-1.15,2.41-2.19,4.88-3.1,7.32-.91,2.46-1.63,5.02-2.16,7.61-.54,2.63-.77,5.49-.69,8.55.23,4.63,1.23,9.2,2.97,13.58l.27.68h19.13l-1.18-1.68c-1.04-1.49-2.01-2.85-2.9-4.08-.87-1.2-1.7-2.43-2.46-3.66-.75-1.22-1.47-2.53-2.11-3.9-.65-1.36-1.27-2.9-1.83-4.52-2.51-8.32-2.11-16.65,1.19-24.76l7.45-18.12,2.43-5.73,26.45,66.33,14,.13-32.23-80.36Z"/>
    <g>
      <path class="cls-2" d="m312.77,218.1c-2.31,0-4.36-.5-6.14-1.5-1.78-1-3.17-2.42-4.17-4.24-1-1.83-1.5-3.98-1.5-6.45s.5-4.63,1.5-6.45c1-1.83,2.39-3.24,4.17-4.24,1.78-1,3.83-1.5,6.14-1.5,2.05,0,3.89.36,5.52,1.08,1.63.72,2.9,1.73,3.84,3.04.93,1.31,1.4,2.87,1.4,4.69v.42h-2.72v-.42c0-2.03-.68-3.6-2.05-4.7-1.37-1.11-3.35-1.66-5.94-1.66-1.96,0-3.63.37-5,1.11-1.38.74-2.42,1.83-3.13,3.27-.71,1.44-1.06,3.23-1.06,5.38s.35,3.91,1.06,5.36c.71,1.45,1.75,2.55,3.13,3.29,1.38.74,3.05,1.11,5,1.11,2.59,0,4.57-.55,5.94-1.66,1.37-1.11,2.05-2.68,2.05-4.7v-.42h2.72v.42c0,1.79-.46,3.35-1.4,4.67-.93,1.32-2.21,2.34-3.84,3.06-1.63.72-3.47,1.08-5.52,1.08Z"/>
      <path class="cls-2" d="m330.1,217.75h-2.51v-23.69h2.51v23.69Z"/>
      <path class="cls-2" d="m343.32,218.1c-1.86,0-3.49-.37-4.88-1.11-1.39-.74-2.46-1.8-3.2-3.16-.74-1.37-1.11-2.97-1.11-4.81s.37-3.34,1.11-4.7c.74-1.37,1.8-2.44,3.18-3.22,1.38-.78,3-1.17,4.86-1.17,1.72,0,3.24.32,4.54.96,1.31.64,2.34,1.56,3.09,2.78.75,1.21,1.13,2.69,1.13,4.44,0,.31-.02.6-.05.87-.04.27-.08.52-.12.76h-16.2v-1.56h14.68l-.74.92c.02-.24.04-.47.05-.71s.02-.48.02-.74c0-1.84-.55-3.24-1.66-4.19-1.11-.95-2.7-1.43-4.77-1.43-2.38,0-4.1.6-5.16,1.79-1.06,1.19-1.59,2.82-1.59,4.9v.57c0,2.1.53,3.75,1.59,4.95,1.06,1.2,2.79,1.8,5.2,1.8,2.05,0,3.57-.36,4.54-1.08.98-.72,1.47-1.71,1.47-2.99v-.25h2.51v.25c0,1.23-.37,2.3-1.1,3.22-.73.92-1.74,1.64-3.02,2.16-1.29.52-2.74.78-4.37.78Z"/>
      <path class="cls-2" d="m360.93,218.1c-1.72,0-3.11-.39-4.17-1.18-1.06-.79-1.59-1.88-1.59-3.27,0-.97.24-1.75.73-2.35.48-.6,1.15-1.07,2-1.4.85-.33,1.81-.57,2.9-.71l8.66-.96v1.66l-7.89.88c-1.32.12-2.3.37-2.94.74-.64.38-.95,1.03-.95,1.94s.31,1.54.92,2,1.58.69,2.9.69c1.44,0,2.72-.22,3.85-.65,1.13-.44,2.04-1.1,2.72-2,.68-.9,1.03-2.04,1.03-3.43l.5.18v2.79h-.5c-.52,1.6-1.5,2.85-2.94,3.73-1.44.88-3.18,1.33-5.23,1.33Zm10.61-.35h-2.26v-4.77l-.18-.14v-5.91c0-1.7-.4-2.91-1.2-3.64-.8-.73-2.17-1.1-4.1-1.1s-3.28.35-4.26,1.04c-.98.7-1.47,1.82-1.47,3.38v.14h-2.51v-.14c0-1.25.33-2.38.99-3.38s1.61-1.8,2.86-2.4c1.25-.6,2.77-.9,4.56-.9s3.21.31,4.33.92c1.12.61,1.94,1.44,2.46,2.48.52,1.04.78,2.2.78,3.5v10.93Z"/>
      <path class="cls-2" d="m378.9,217.75h-2.51v-17.47h2.26v5.55l.25.18v11.74Zm14.71,0h-2.51v-9.83c0-1.81-.45-3.22-1.36-4.21-.91-.99-2.36-1.49-4.37-1.49-2.15,0-3.76.61-4.85,1.84-1.08,1.23-1.63,2.97-1.63,5.23h-.67l-.04-3.54h.64c.21-.99.62-1.93,1.24-2.83.61-.9,1.43-1.62,2.46-2.17,1.03-.55,2.27-.83,3.73-.83,1.65,0,3.02.35,4.1,1.04,1.08.7,1.9,1.62,2.44,2.78.54,1.15.81,2.43.81,3.82v10.18Z"/>
      <path class="cls-2" d="m400.47,217.75h-3.11v-4.92h3.11v4.92Z"/>
      <path class="cls-2" d="m420.77,218.1c-2.31,0-4.23-.34-5.75-1.03-1.52-.68-2.65-1.62-3.38-2.81-.73-1.19-1.1-2.53-1.1-4.01v-.21h2.55v.46c0,1.13.25,2.09.76,2.86.51.78,1.33,1.37,2.46,1.77,1.13.4,2.62.6,4.46.6,1.6,0,2.9-.14,3.91-.42,1-.28,1.75-.73,2.25-1.33s.74-1.35.74-2.25c0-1.32-.41-2.28-1.22-2.88-.81-.6-2.09-1.08-3.84-1.43l-5.02-.95c-1.27-.26-2.44-.62-3.48-1.1-1.05-.47-1.89-1.13-2.51-1.96-.62-.84-.94-1.91-.94-3.24,0-.8.18-1.59.55-2.35.37-.77.93-1.46,1.68-2.09.75-.62,1.74-1.12,2.95-1.49,1.21-.36,2.67-.55,4.37-.55,2.24,0,4.07.35,5.48,1.06,1.41.71,2.46,1.66,3.15,2.85.68,1.19,1.03,2.51,1.03,3.94v.21h-2.55v-.42c0-1.13-.25-2.09-.74-2.88-.5-.79-1.27-1.39-2.33-1.79-1.06-.4-2.46-.6-4.21-.6-1.56,0-2.84.15-3.85.44-1.01.3-1.76.73-2.25,1.31-.48.58-.73,1.3-.73,2.18s.18,1.58.55,2.12c.36.54.92.97,1.66,1.27.74.31,1.69.59,2.85.85l4.99.99c1.41.26,2.64.65,3.68,1.17,1.04.52,1.84,1.2,2.42,2.03.58.84.87,1.87.87,3.09,0,1.11-.33,2.17-.99,3.18-.66,1.01-1.69,1.83-3.08,2.46-1.39.62-3.18.94-5.38.94Z"/>
      <path class="cls-2" d="m444.89,202.43h-12.59v-2.16h12.59v2.16Zm0,15.31h-3.78c-1.75,0-3.13-.41-4.16-1.24-1.03-.83-1.54-2.26-1.54-4.31v-16.09h2.55v16.23c0,1.23.31,2.05.92,2.48.61.42,1.56.64,2.83.64h3.18v2.3Z"/>
      <path class="cls-2" d="m450.65,223.76h-2.19v-2.3h2.65c.87,0,1.53-.15,1.96-.44.44-.29.82-.81,1.15-1.54l1.34-2.83-.32,1.45-8.84-17.82h2.76l5.13,10.4,1.94,4.28h.21l1.87-4.31,4.84-10.36h2.76l-9.48,19.91c-.42.87-.9,1.57-1.43,2.1-.53.53-1.15.91-1.86,1.13-.71.22-1.54.34-2.51.34Z"/>
      <path class="cls-2" d="m471.55,217.75h-2.51v-23.69h2.51v23.69Z"/>
      <path class="cls-2" d="m484.78,218.1c-1.86,0-3.49-.37-4.88-1.11s-2.46-1.8-3.2-3.16c-.74-1.37-1.11-2.97-1.11-4.81s.37-3.34,1.11-4.7c.74-1.37,1.8-2.44,3.18-3.22,1.38-.78,3-1.17,4.86-1.17,1.72,0,3.24.32,4.54.96,1.31.64,2.34,1.56,3.09,2.78.75,1.21,1.13,2.69,1.13,4.44,0,.31-.02.6-.05.87-.04.27-.08.52-.12.76h-16.2v-1.56h14.68l-.74.92c.02-.24.04-.47.05-.71s.02-.48.02-.74c0-1.84-.55-3.24-1.66-4.19-1.11-.95-2.7-1.43-4.77-1.43-2.38,0-4.1.6-5.16,1.79-1.06,1.19-1.59,2.82-1.59,4.9v.57c0,2.1.53,3.75,1.59,4.95,1.06,1.2,2.79,1.8,5.2,1.8,2.05,0,3.57-.36,4.54-1.08.98-.72,1.47-1.71,1.47-2.99v-.25h2.51v.25c0,1.23-.37,2.3-1.1,3.22-.73.92-1.74,1.64-3.02,2.16-1.29.52-2.74.78-4.37.78Z"/>
      <path class="cls-2" d="m499.6,217.75h-3.11v-4.92h3.11v4.92Z"/>
      <path class="cls-2" d="m519.9,218.1c-2.31,0-4.23-.34-5.75-1.03-1.52-.68-2.65-1.62-3.38-2.81-.73-1.19-1.1-2.53-1.1-4.01v-.21h2.55v.46c0,1.13.25,2.09.76,2.86.51.78,1.33,1.37,2.46,1.77,1.13.4,2.62.6,4.46.6,1.6,0,2.9-.14,3.91-.42,1-.28,1.75-.73,2.25-1.33s.74-1.35.74-2.25c0-1.32-.41-2.28-1.22-2.88-.81-.6-2.09-1.08-3.84-1.43l-5.02-.95c-1.27-.26-2.44-.62-3.48-1.1-1.05-.47-1.89-1.13-2.51-1.96-.62-.84-.94-1.91-.94-3.24,0-.8.18-1.59.55-2.35.37-.77.93-1.46,1.68-2.09.75-.62,1.74-1.12,2.95-1.49,1.21-.36,2.67-.55,4.37-.55,2.24,0,4.07.35,5.48,1.06,1.41.71,2.46,1.66,3.15,2.85.68,1.19,1.03,2.51,1.03,3.94v.21h-2.55v-.42c0-1.13-.25-2.09-.74-2.88-.5-.79-1.27-1.39-2.33-1.79-1.06-.4-2.46-.6-4.21-.6-1.56,0-2.84.15-3.85.44-1.01.3-1.76.73-2.25,1.31-.48.58-.73,1.3-.73,2.18s.18,1.58.55,2.12c.36.54.92.97,1.66,1.27.74.31,1.69.59,2.85.85l4.99.99c1.41.26,2.64.65,3.68,1.17,1.04.52,1.84,1.2,2.42,2.03.58.84.87,1.87.87,3.09,0,1.11-.33,2.17-.99,3.18s-1.69,1.83-3.08,2.46c-1.39.62-3.18.94-5.38.94Z"/>
      <path class="cls-2" d="m544.02,202.43h-12.59v-2.16h12.59v2.16Zm0,15.31h-3.78c-1.75,0-3.13-.41-4.16-1.24-1.03-.83-1.54-2.26-1.54-4.31v-16.09h2.55v16.23c0,1.23.31,2.05.92,2.48.61.42,1.56.64,2.83.64h3.18v2.3Z"/>
      <path class="cls-2" d="m552.32,218.1c-1.72,0-3.11-.39-4.17-1.18-1.06-.79-1.59-1.88-1.59-3.27,0-.97.24-1.75.73-2.35.48-.6,1.15-1.07,2-1.4.85-.33,1.81-.57,2.9-.71l8.66-.96v1.66l-7.89.88c-1.32.12-2.3.37-2.94.74-.64.38-.95,1.03-.95,1.94s.31,1.54.92,2,1.58.69,2.9.69c1.44,0,2.72-.22,3.85-.65,1.13-.44,2.04-1.1,2.72-2,.68-.9,1.03-2.04,1.03-3.43l.5.18v2.79h-.5c-.52,1.6-1.5,2.85-2.94,3.73-1.44.88-3.18,1.33-5.23,1.33Zm10.61-.35h-2.26v-4.77l-.18-.14v-5.91c0-1.7-.4-2.91-1.2-3.64s-2.17-1.1-4.1-1.1-3.28.35-4.26,1.04c-.98.7-1.47,1.82-1.47,3.38v.14h-2.51v-.14c0-1.25.33-2.38.99-3.38.66-1,1.61-1.8,2.86-2.4,1.25-.6,2.77-.9,4.56-.9s3.21.31,4.33.92c1.12.61,1.94,1.44,2.46,2.48.52,1.04.78,2.2.78,3.5v10.93Z"/>
      <path class="cls-2" d="m575.28,216.33c-1.75,0-3.24-.35-4.49-1.06-1.25-.71-2.21-1.67-2.88-2.9-.67-1.23-1.01-2.64-1.01-4.24s.35-3.02,1.04-4.24c.7-1.23,1.69-2.19,2.99-2.9,1.3-.71,2.84-1.06,4.63-1.06s3.42.42,4.76,1.27c1.33.85,2.18,2.04,2.53,3.57h.74l-.14,2.86h-.67c0-1.16-.28-2.14-.83-2.95-.55-.81-1.32-1.44-2.3-1.87-.98-.44-2.15-.65-3.52-.65s-2.45.19-3.47.57c-1.01.38-1.81,1-2.39,1.87-.58.87-.87,2.05-.87,3.54s.28,2.66.85,3.54c.57.87,1.34,1.5,2.32,1.87.98.38,2.1.57,3.38.57,2.14,0,3.82-.51,5.02-1.54,1.2-1.03,1.8-2.47,1.8-4.33h.67v3.43h-.85c-.35,1.34-1.16,2.46-2.42,3.34-1.26.89-2.89,1.33-4.9,1.33Zm1.1,7.78c-1.58,0-3-.26-4.26-.78-1.26-.52-2.26-1.25-2.99-2.19-.73-.94-1.1-2.1-1.1-3.47h2.51c0,1.01.22,1.84.67,2.48.45.64,1.11,1.1,2,1.38.88.28,1.97.42,3.27.42,1.51,0,2.73-.18,3.66-.53.93-.35,1.6-.95,2.02-1.79.41-.84.62-1.97.62-3.41v-10.04l.25-.32v-5.59h2.26v15.81c0,1.93-.38,3.48-1.13,4.65-.75,1.17-1.8,2.02-3.13,2.56-1.33.54-2.88.81-4.65.81Z"/>
      <path class="cls-2" d="m598.55,218.1c-1.86,0-3.49-.37-4.88-1.11-1.39-.74-2.46-1.8-3.2-3.16-.74-1.37-1.11-2.97-1.11-4.81s.37-3.34,1.11-4.7c.74-1.37,1.8-2.44,3.18-3.22,1.38-.78,3-1.17,4.86-1.17,1.72,0,3.24.32,4.54.96,1.31.64,2.34,1.56,3.09,2.78.75,1.21,1.13,2.69,1.13,4.44,0,.31-.02.6-.05.87-.04.27-.08.52-.12.76h-16.2v-1.56h14.68l-.74.92c.02-.24.04-.47.05-.71s.02-.48.02-.74c0-1.84-.55-3.24-1.66-4.19-1.11-.95-2.7-1.43-4.77-1.43-2.38,0-4.1.6-5.16,1.79-1.06,1.19-1.59,2.82-1.59,4.9v.57c0,2.1.53,3.75,1.59,4.95,1.06,1.2,2.79,1.8,5.2,1.8,2.05,0,3.57-.36,4.54-1.08.98-.72,1.47-1.71,1.47-2.99v-.25h2.51v.25c0,1.23-.37,2.3-1.1,3.22-.73.92-1.74,1.64-3.02,2.16-1.29.52-2.74.78-4.37.78Z"/>
      <path class="cls-2" d="m613.37,217.75h-3.11v-4.92h3.11v4.92Z"/>
      <path class="cls-2" d="m635.4,218.1c-2.31,0-4.36-.5-6.14-1.5-1.78-1-3.17-2.42-4.17-4.24-1-1.83-1.5-3.98-1.5-6.45s.5-4.63,1.5-6.45c1-1.83,2.39-3.24,4.17-4.24,1.78-1,3.83-1.5,6.14-1.5,2.05,0,3.89.36,5.52,1.08,1.63.72,2.9,1.73,3.84,3.04.93,1.31,1.4,2.87,1.4,4.69v.42h-2.72v-.42c0-2.03-.68-3.6-2.05-4.7-1.37-1.11-3.35-1.66-5.94-1.66-1.96,0-3.63.37-5,1.11-1.38.74-2.42,1.83-3.13,3.27-.71,1.44-1.06,3.23-1.06,5.38s.35,3.91,1.06,5.36c.71,1.45,1.75,2.55,3.13,3.29,1.38.74,3.05,1.11,5,1.11,2.59,0,4.57-.55,5.94-1.66,1.37-1.11,2.05-2.68,2.05-4.7v-.42h2.72v.42c0,1.79-.46,3.35-1.4,4.67-.93,1.32-2.21,2.34-3.84,3.06-1.63.72-3.47,1.08-5.52,1.08Z"/>
      <path class="cls-2" d="m658.53,218.1c-1.86,0-3.49-.37-4.88-1.11-1.39-.74-2.46-1.8-3.2-3.16-.74-1.37-1.11-2.97-1.11-4.81s.37-3.34,1.11-4.7c.74-1.37,1.8-2.44,3.18-3.22,1.38-.78,3-1.17,4.86-1.17,1.72,0,3.24.32,4.54.96,1.31.64,2.34,1.56,3.09,2.78.75,1.21,1.13,2.69,1.13,4.44,0,.31-.02.6-.05.87-.04.27-.08.52-.12.76h-16.2v-1.56h14.68l-.74.92c.02-.24.04-.47.05-.71s.02-.48.02-.74c0-1.84-.55-3.24-1.66-4.19-1.11-.95-2.7-1.43-4.77-1.43-2.38,0-4.1.6-5.16,1.79-1.06,1.19-1.59,2.82-1.59,4.9v.57c0,2.1.53,3.75,1.59,4.95,1.06,1.2,2.79,1.8,5.2,1.8,2.05,0,3.57-.36,4.54-1.08.98-.72,1.47-1.71,1.47-2.99v-.25h2.51v.25c0,1.23-.37,2.3-1.1,3.22-.73.92-1.74,1.64-3.02,2.16-1.29.52-2.74.78-4.37.78Z"/>
      <path class="cls-2" d="m673.8,217.75h-2.51v-23.69h2.51v23.69Z"/>
      <path class="cls-2" d="m687.03,218.1c-1.86,0-3.49-.37-4.88-1.11-1.39-.74-2.46-1.8-3.2-3.16s-1.11-2.97-1.11-4.81.37-3.34,1.11-4.7c.74-1.37,1.8-2.44,3.18-3.22,1.38-.78,3-1.17,4.86-1.17,1.72,0,3.24.32,4.54.96,1.31.64,2.34,1.56,3.09,2.78.75,1.21,1.13,2.69,1.13,4.44,0,.31-.02.6-.05.87-.04.27-.08.52-.12.76h-16.2v-1.56h14.68l-.74.92c.02-.24.04-.47.05-.71s.02-.48.02-.74c0-1.84-.55-3.24-1.66-4.19-1.11-.95-2.7-1.43-4.77-1.43-2.38,0-4.1.6-5.16,1.79-1.06,1.19-1.59,2.82-1.59,4.9v.57c0,2.1.53,3.75,1.59,4.95,1.06,1.2,2.79,1.8,5.2,1.8,2.05,0,3.57-.36,4.54-1.08.98-.72,1.47-1.71,1.47-2.99v-.25h2.51v.25c0,1.23-.37,2.3-1.1,3.22-.73.92-1.74,1.64-3.02,2.16-1.29.52-2.74.78-4.37.78Z"/>
      <path class="cls-2" d="m702.06,217.75h-2.26v-23.69h2.51v17.51l-.25.46v5.73Zm7.67.35c-1.96,0-3.59-.48-4.9-1.45-1.31-.97-2.17-2.32-2.6-4.07h-.74l.14-3.29h.67c0,1.37.28,2.54.83,3.52.55.98,1.34,1.72,2.35,2.23,1.01.51,2.22.76,3.61.76s2.63-.22,3.64-.65c1.01-.44,1.79-1.14,2.33-2.12s.81-2.32.81-4.01-.28-3.03-.83-4.01c-.55-.98-1.33-1.68-2.33-2.1-1-.42-2.18-.64-3.52-.64-2.22,0-3.92.58-5.11,1.75-1.19,1.17-1.79,2.82-1.79,4.97h-.67v-3.82h.81c.4-1.51,1.23-2.76,2.48-3.75,1.25-.99,2.92-1.49,5.02-1.49,1.84,0,3.38.39,4.63,1.17,1.25.78,2.2,1.85,2.86,3.22.66,1.37.99,2.94.99,4.7s-.33,3.34-.99,4.7c-.66,1.37-1.63,2.44-2.92,3.22-1.29.78-2.88,1.17-4.79,1.17Z"/>
      <path class="cls-2" d="m724.73,217.75h-2.51v-17.47h2.26v4.92l.25.18v12.38Zm0-9.48h-.71v-3.22h.64c.16-.94.5-1.8,1.01-2.58s1.19-1.4,2.03-1.86c.85-.46,1.89-.69,3.11-.69,1.34,0,2.45.3,3.31.89.86.59,1.49,1.36,1.89,2.3.4.94.6,1.96.6,3.04v1.73h-2.51v-1.34c0-1.49-.33-2.59-.99-3.32s-1.76-1.1-3.29-1.1c-1.77,0-3.06.53-3.87,1.59-.81,1.06-1.22,2.58-1.22,4.56Z"/>
      <path class="cls-2" d="m745.06,218.1c-1.72,0-3.11-.39-4.17-1.18-1.06-.79-1.59-1.88-1.59-3.27,0-.97.24-1.75.73-2.35.48-.6,1.15-1.07,2-1.4.85-.33,1.81-.57,2.9-.71l8.66-.96v1.66l-7.89.88c-1.32.12-2.3.37-2.94.74s-.95,1.03-.95,1.94.31,1.54.92,2,1.58.69,2.9.69c1.44,0,2.72-.22,3.85-.65,1.13-.44,2.04-1.1,2.72-2,.68-.9,1.03-2.04,1.03-3.43l.5.18v2.79h-.5c-.52,1.6-1.5,2.85-2.94,3.73-1.44.88-3.18,1.33-5.23,1.33Zm10.61-.35h-2.26v-4.77l-.18-.14v-5.91c0-1.7-.4-2.91-1.2-3.64-.8-.73-2.17-1.1-4.1-1.1s-3.28.35-4.26,1.04c-.98.7-1.47,1.82-1.47,3.38v.14h-2.51v-.14c0-1.25.33-2.38.99-3.38.66-1,1.61-1.8,2.86-2.4,1.25-.6,2.77-.9,4.56-.9s3.21.31,4.33.92c1.12.61,1.94,1.44,2.46,2.48.52,1.04.78,2.2.78,3.5v10.93Z"/>
      <path class="cls-2" d="m771.23,202.43h-12.59v-2.16h12.59v2.16Zm0,15.31h-3.78c-1.75,0-3.13-.41-4.16-1.24-1.03-.83-1.54-2.26-1.54-4.31v-16.09h2.55v16.23c0,1.23.31,2.05.92,2.48.61.42,1.56.64,2.83.64h3.18v2.3Z"/>
      <path class="cls-2" d="m783.01,218.1c-1.86,0-3.49-.37-4.88-1.11-1.39-.74-2.46-1.8-3.2-3.16-.74-1.37-1.11-2.97-1.11-4.81s.37-3.34,1.11-4.7c.74-1.37,1.8-2.44,3.18-3.22,1.38-.78,3-1.17,4.86-1.17,1.72,0,3.24.32,4.54.96,1.31.64,2.34,1.56,3.09,2.78.75,1.21,1.13,2.69,1.13,4.44,0,.31-.02.6-.05.87-.04.27-.08.52-.12.76h-16.2v-1.56h14.68l-.74.92c.02-.24.04-.47.05-.71s.02-.48.02-.74c0-1.84-.55-3.24-1.66-4.19-1.11-.95-2.7-1.43-4.77-1.43-2.38,0-4.1.6-5.16,1.79-1.06,1.19-1.59,2.82-1.59,4.9v.57c0,2.1.53,3.75,1.59,4.95,1.06,1.2,2.79,1.8,5.2,1.8,2.05,0,3.57-.36,4.54-1.08.98-.72,1.47-1.71,1.47-2.99v-.25h2.51v.25c0,1.23-.37,2.3-1.1,3.22-.73.92-1.74,1.64-3.02,2.16-1.29.52-2.74.78-4.37.78Z"/>
    </g>
  </g>
</svg>